<svg xmlns="http://www.w3.org/2000/svg" xmlns:xlink="http://www.w3.org/1999/xlink" version="1.1" x="0px" y="0px" viewBox="0 0 100 125" enable-background="new 0 0 100 100" xml:space="preserve"><g><path d="M43.6,47.7c0.2,0.5,0.7,0.8,1.3,0.7l-0.7-1.9C43.7,46.7,43.4,47.2,43.6,47.7z"/><path d="M44.4,46.4l0.7,1.9c0.5-0.2,0.8-0.8,0.6-1.3C45.5,46.6,45,46.3,44.4,46.4z"/><path d="M55.4,46.8c-0.3,0.4-0.3,1,0.1,1.4l1.3-1.6C56.4,46.3,55.8,46.4,55.4,46.8z"/><path d="M57.1,46.7l-1.3,1.6c0.5,0.3,1.1,0.2,1.4-0.3C57.5,47.6,57.5,47,57.1,46.7z"/><path d="M50.5,5c-24.8,0-45,19-45,42.3s20.2,42.3,45,42.3c24.8,0,45-19,45-42.3S75.3,5,50.5,5z M51.9,9.6c-0.5,0.7-1.5,0.8-2.3,0.4   l2.1-2.6C52.3,8,52.4,9,51.9,9.6z M49.1,7.6c0.5-0.7,1.5-0.8,2.3-0.4l-2.1,2.6C48.7,9.3,48.5,8.3,49.1,7.6z M8.2,48.7   c-0.8-0.5-1-1.4-0.6-2.1l2.9,1.8C9.9,49,8.9,49.2,8.2,48.7z M10.7,48.1l-2.9-1.8c0.6-0.6,1.5-0.8,2.3-0.4   C10.9,46.4,11.1,47.3,10.7,48.1z M42.1,84c0.7-0.6,1.7-0.5,2.3,0l-2.6,2.1C41.4,85.5,41.5,84.6,42.1,84z M44.5,86.5   c-0.7,0.6-1.7,0.5-2.3,0l2.6-2.1C45.2,85,45.2,86,44.5,86.5z M56.9,86.8c-0.8-0.4-1.1-1.3-0.8-2.1l3.1,1.5   C58.6,86.9,57.7,87.2,56.9,86.8z M59.3,85.9l-3.1-1.5c0.5-0.7,1.4-1,2.3-0.6C59.3,84.2,59.6,85.1,59.3,85.9z M50.5,82.6   C29.8,82.6,13,66.8,13,47.3s16.8-35.3,37.5-35.3S88,27.9,88,47.3S71.2,82.6,50.5,82.6z M91.2,45.8c0.8-0.3,1.8,0.1,2.2,0.8   l-3.2,1.2C89.9,47,90.4,46.1,91.2,45.8z M92.5,48.9c-0.8,0.3-1.8-0.1-2.2-0.8l3.2-1.2C93.7,47.7,93.3,48.6,92.5,48.9z"/><path d="M50.5,90.5c-2.2,0-4.3-0.2-6.4-0.4L21,93.9V95h29.5H80v-1.1L56.9,90C54.8,90.3,52.7,90.5,50.5,90.5z"/><path d="M50.5,13.9c-19.6,0-35.5,15-35.5,33.4s15.9,33.4,35.5,33.4S86,65.8,86,47.3S70.1,13.9,50.5,13.9z M66.5,26.4   c1.7-1.6,4.6-1.6,6.3,0c1.7,1.6,1.7,4.3,0,5.9c-1.7,1.6-4.6,1.6-6.3,0C64.8,30.6,64.8,28,66.5,26.4z M58.1,29.9   c1.4,0.6,2.1,2.1,1.5,3.5c-0.6,1.4-2.2,2-3.7,1.5c-1.4-0.6-2.1-2.1-1.5-3.5C55,30,56.6,29.3,58.1,29.9z M51.1,55.8   c0,0.3-0.3,0.6-0.6,0.6h0c-0.3,0-0.6-0.2-0.6-0.6c0-0.1,0-0.2,0.1-0.2c-4.6-0.3-8.2-3.8-8.2-8.2c0-4.1,3.3-7.6,7.5-8.1v-1.7   c0.3,0.3,0.7,0.5,1.2,0.5s0.9-0.2,1.2-0.5v1.7c4.3,0.5,7.5,4,7.5,8.1c0,4.4-3.6,7.9-8.2,8.2C51.1,55.6,51.1,55.7,51.1,55.8z    M49.3,36.7c0-0.3,0.1-0.6,0.3-0.8h1.8c0.2,0.2,0.3,0.5,0.3,0.8c0,0.6-0.6,1.2-1.2,1.2S49.3,37.3,49.3,36.7z M50.5,17.7   c2.5,0,4.5,1.9,4.5,4.2c0,2.3-2,4.2-4.5,4.2C48,26,46,24.2,46,21.8C46,19.5,48,17.7,50.5,17.7z M37.2,42.2c-0.6,1.4-2.2,2-3.7,1.5   c-1.4-0.6-2.1-2.1-1.5-3.5c0.6-1.4,2.2-2,3.7-1.5C37.1,39.3,37.8,40.9,37.2,42.2z M28.2,26.4c1.7-1.6,4.6-1.6,6.3,0   c1.7,1.6,1.7,4.3,0,5.9c-1.7,1.6-4.6,1.6-6.3,0C26.4,30.6,26.4,28,28.2,26.4z M23.4,51.5c-2.5,0-4.5-1.9-4.5-4.2   c0-2.3,2-4.2,4.5-4.2c2.5,0,4.5,1.9,4.5,4.2C27.8,49.7,25.9,51.5,23.4,51.5z M34.5,68.3c-1.7,1.6-4.6,1.6-6.3,0   c-1.7-1.6-1.7-4.3,0-5.9c1.7-1.6,4.6-1.6,6.3,0C36.2,64,36.2,66.7,34.5,68.3z M35.7,56.1c-1.4,0.6-3.1-0.1-3.7-1.4   c-0.6-1.4,0.1-2.9,1.5-3.5c1.4-0.6,3.1,0.1,3.7,1.4C37.8,53.9,37.2,55.5,35.7,56.1z M42.7,30c1.4-0.6,3.1,0.1,3.7,1.4   c0.6,1.4-0.1,2.9-1.5,3.5c-1.4,0.6-3.1-0.1-3.7-1.4C40.6,32.1,41.3,30.5,42.7,30z M41.4,61.3c0.6-1.4,2.2-2,3.7-1.5   c1.4,0.6,2.1,2.1,1.5,3.5c-0.6,1.4-2.2,2-3.7,1.5C41.5,64.2,40.8,62.7,41.4,61.3z M50.5,79.6c-4,0-7.2-3.1-7.2-6.8   c0-3.8,3.2-6.8,7.2-6.8c4,0,7.2,3.1,7.2,6.8C57.7,76.5,54.5,79.6,50.5,79.6z M58.2,64.7c-1.4,0.6-3.1-0.1-3.7-1.4   c-0.6-1.4,0.1-2.9,1.5-3.5c1.4-0.6,3.1,0.1,3.7,1.4C60.4,62.6,59.7,64.2,58.2,64.7z M65.3,38.6c1.4-0.6,3.1,0.1,3.7,1.4   c0.6,1.4-0.1,2.9-1.5,3.5c-1.4,0.6-3.1-0.1-3.7-1.4C63.1,40.8,63.8,39.2,65.3,38.6z M63.8,52.5c0.6-1.4,2.2-2,3.7-1.5   c1.4,0.6,2.1,2.1,1.5,3.5c-0.6,1.4-2.2,2-3.7,1.5C63.9,55.4,63.2,53.8,63.8,52.5z M72.8,68.3c-1.7,1.6-4.6,1.6-6.3,0   c-1.7-1.6-1.7-4.3,0-5.9c1.7-1.6,4.6-1.6,6.3,0C74.5,64,74.5,66.7,72.8,68.3z M82,47.3c0,2.3-2,4.2-4.5,4.2c-2.5,0-4.5-1.9-4.5-4.2   c0-2.3,2-4.2,4.5-4.2C80,43.2,82,45,82,47.3z"/><path d="M50.5,66.6c-3.6,0-6.6,2.8-6.6,6.2c0,3.4,3,6.2,6.6,6.2c3.6,0,6.6-2.8,6.6-6.2C57.1,69.4,54.1,66.6,50.5,66.6z M50.5,78.2   c-3.1,0-5.7-2.4-5.7-5.4s2.5-5.4,5.7-5.4c3.1,0,5.7,2.4,5.7,5.4S53.6,78.2,50.5,78.2z"/></g><text x="0" y="115" fill="#000000" font-size="5px" font-weight="bold" font-family="'Helvetica Neue', Helvetica, Arial-Unicode, Arial, Sans-serif">Created by Paul J Miller</text><text x="0" y="120" fill="#000000" font-size="5px" font-weight="bold" font-family="'Helvetica Neue', Helvetica, Arial-Unicode, Arial, Sans-serif">from the Noun Project</text></svg>